<svg id="Vrstva_1" data-name="Vrstva 1" xmlns="http://www.w3.org/2000/svg" viewBox="0 0 439.01 119.9"><defs><style>.cls-1{fill:#1a171b;}.cls-2{fill:#00a9e2;}</style></defs><title>mv</title><path class="cls-1" d="M284.31,212.81h-2.2V200.93h0l-4.7,5.9H277l-4.7-5.9h0v11.88h-2.2V197.55h2.06l5.06,6.26,5.08-6.26h2Z" transform="translate(-84.01 -149.66)"/><path class="cls-1" d="M290.94,212.81h-2.19V197.55h2.19Z" transform="translate(-84.01 -149.66)"/><path class="cls-1" d="M309.56,212.81h-1.88l-10.2-11.75v11.75h-2.06V197.55h1.75l10.33,11.81V197.55h2.06Z" transform="translate(-84.01 -149.66)"/><path class="cls-1" d="M316.26,212.81h-2.19V197.55h2.19Z" transform="translate(-84.01 -149.66)"/><path class="cls-1" d="M328,200.9a5.14,5.14,0,0,0-3.58-1.59c-1.42,0-2.42.74-2.42,1.82,0,2.93,6.6,2.88,6.6,7.74a4.08,4.08,0,0,1-4.27,4.14,6.76,6.76,0,0,1-4.28-1.41v-2.77a5.16,5.16,0,0,0,4,2.21c1.7,0,2.48-1.07,2.48-1.92,0-3.16-6.6-3.52-6.6-7.71,0-2.48,1.84-4.07,4.64-4.07a6.1,6.1,0,0,1,3.4,1.08Z" transform="translate(-84.01 -149.66)"/><path class="cls-1" d="M343.6,199.52h-5.28v13.29h-2.19V199.52h-5.29v-2H343.6Z" transform="translate(-84.01 -149.66)"/><path class="cls-1" d="M355.45,199.52H349v4.61h6.24v2H349v4.75h6.66v2h-8.85V197.55h8.66Z" transform="translate(-84.01 -149.66)"/><path class="cls-1" d="M363,197.55c3.08,0,5,1.63,5,4.27a3.82,3.82,0,0,1-2.56,3.74c1.4.91,2.24,2.33,3.41,4.23.65,1.05,1,1.56,2.08,3h-2.62l-2-3.14c-2-3.13-2.94-3.49-4.05-3.49h-.92v6.63h-2.19V197.55Zm-1.66,6.66h1.41c2.35,0,3-1.21,3-2.48,0-1.43-.87-2.31-3-2.31h-1.41Z" transform="translate(-84.01 -149.66)"/><path class="cls-1" d="M381,200.9a5.12,5.12,0,0,0-3.58-1.59c-1.41,0-2.41.74-2.41,1.82,0,2.93,6.6,2.88,6.6,7.74a4.08,4.08,0,0,1-4.28,4.14,6.75,6.75,0,0,1-4.27-1.41v-2.77a5.16,5.16,0,0,0,4,2.21c1.7,0,2.48-1.07,2.48-1.92,0-3.16-6.6-3.52-6.6-7.71,0-2.48,1.84-4.07,4.64-4.07a6.07,6.07,0,0,1,3.39,1.08Z" transform="translate(-84.01 -149.66)"/><path class="cls-1" d="M396.58,199.52H391.3v13.29h-2.19V199.52h-5.29v-2h12.76Z" transform="translate(-84.01 -149.66)"/><path class="cls-1" d="M405.13,212.94h-.44l-6.6-15.39h2.19l4.58,10.71,4.57-10.71h2.17Z" transform="translate(-84.01 -149.66)"/><path class="cls-1" d="M421,197.34c5,0,8.21,3.59,8.21,7.84S426.16,213,421,213a7.84,7.84,0,1,1,.05-15.67ZM421,211a5.82,5.82,0,1,0-5.94-5.82A5.73,5.73,0,0,0,421,211Z" transform="translate(-84.01 -149.66)"/><path class="cls-1" d="M445.88,212.94h-.45l-6.6-15.39H441l4.59,10.71,4.57-10.71h2.17Z" transform="translate(-84.01 -149.66)"/><path class="cls-1" d="M469.28,212.81H467.4l-10.21-11.75v11.75h-2.06V197.55h1.75l10.33,11.81V197.55h2.07Z" transform="translate(-84.01 -149.66)"/><path class="cls-1" d="M476,212.81h-2.19V197.55H476Z" transform="translate(-84.01 -149.66)"/><path class="cls-1" d="M491.94,199.52h-5.28v13.29h-2.2V199.52h-5.28v-2h12.76Z" transform="translate(-84.01 -149.66)"/><path class="cls-1" d="M499,197.55c3.08,0,5,1.63,5,4.27a3.82,3.82,0,0,1-2.55,3.74c1.39.91,2.24,2.33,3.4,4.23.65,1.05,1,1.56,2.08,3h-2.62l-2-3.14c-2-3.13-2.93-3.49-4.05-3.49h-.92v6.63h-2.19V197.55Zm-1.66,6.66h1.41c2.35,0,3-1.21,3-2.48,0-1.43-.87-2.31-3-2.31h-1.41Z" transform="translate(-84.01 -149.66)"/><path class="cls-1" d="M523,212.81h-2.23l-2-4.5h-6.49l-1.92,4.5h-2.24l6.56-15.35h1.54Zm-9.91-6.47h4.75l-2.47-5.53Z" transform="translate(-84.01 -149.66)"/><path class="cls-1" d="M283.12,227.82a10,10,0,0,0-5.26-1.59,5.81,5.81,0,0,0-6.09,5.84c0,3.42,2.51,5.79,6.18,5.79a10,10,0,0,0,5.33-1.72v2.4a11.28,11.28,0,0,1-5.53,1.34,7.8,7.8,0,0,1-8.24-7.61c0-4.65,3.52-8.06,8.37-8.06a13.16,13.16,0,0,1,5.24,1.26Zm-6.56-4.14-2.68-2.62h1.34l2.57,1.41,2.58-1.41h1.34L279,223.68Z" transform="translate(-84.01 -149.66)"/><path class="cls-1" d="M295.75,226.38h-6.46V231h6.24v2h-6.24v4.75H296v2h-8.86V224.41h8.66Z" transform="translate(-84.01 -149.66)"/><path class="cls-1" d="M306.66,227.77a5.15,5.15,0,0,0-3.58-1.59c-1.41,0-2.42.74-2.42,1.82,0,2.92,6.6,2.88,6.6,7.74a4.08,4.08,0,0,1-4.27,4.14,6.76,6.76,0,0,1-4.28-1.41v-2.78a5.14,5.14,0,0,0,4,2.22c1.7,0,2.48-1.08,2.48-1.93,0-3.15-6.6-3.51-6.6-7.7,0-2.48,1.84-4.07,4.63-4.07a6.11,6.11,0,0,1,3.41,1.08Z" transform="translate(-84.01 -149.66)"/><path class="cls-1" d="M323.76,239.68h-3L313,232.14v7.54h-2.19V224.41H313v7l6.42-7h2.74l-6.65,7.23Z" transform="translate(-84.01 -149.66)"/><path class="cls-1" d="M335.25,226.38h-6.47V231H335v2h-6.24v4.75h6.67v2h-8.86V224.41h8.66Zm-1.05-5.32-2.89,2.62H330l1.68-2.62Z" transform="translate(-84.01 -149.66)"/><path class="cls-1" d="M353.6,224.41c3.09,0,5,1.64,5,4.28a3.8,3.8,0,0,1-2.56,3.73c1.39.92,2.24,2.33,3.41,4.24.64,1.05,1,1.56,2.08,3h-2.62l-2-3.14c-2-3.13-2.93-3.49-4.05-3.49H352v6.63h-2.2V224.41ZM352,231.09h1.41c2.34,0,3-1.22,3-2.49,0-1.43-.87-2.3-3-2.3H352Z" transform="translate(-84.01 -149.66)"/><path class="cls-1" d="M373,226.38h-6.46V231h6.24v2h-6.24v4.75h6.66v2h-8.86V224.41H373Z" transform="translate(-84.01 -149.66)"/><path class="cls-1" d="M381.32,224.41c3.34,0,4.86,2,4.86,4.39s-1.61,4.28-5.15,4.28h-2.28v6.6h-2.2V224.41Zm-2.57,6.69h2.48c1.64,0,2.69-.87,2.69-2.39,0-1.12-.61-2.33-2.6-2.33h-2.57Z" transform="translate(-84.01 -149.66)"/><path class="cls-1" d="M402,233.68c0,3.74-2.24,6.2-6.78,6.2-3.22,0-6.35-1.82-6.35-6v-9.5h2.18v9c0,1.73.23,2.44.92,3.14a4.47,4.47,0,0,0,3.29,1.29,5,5,0,0,0,3.58-1.23,4.41,4.41,0,0,0,1-3.33v-8.89H402Z" transform="translate(-84.01 -149.66)"/><path class="cls-1" d="M406.18,224.41h4.43c3.29,0,4.7,2,4.7,3.9a3.27,3.27,0,0,1-2.33,3.27v0c2.28.42,3.67,1.93,3.67,4,0,1.89-1.4,4.08-5.24,4.08h-5.23Zm2.19,6.54h1.46c2.16,0,3.22-.81,3.22-2.44,0-1.14-.65-2.13-2.67-2.13h-2Zm0,6.76h2.75c2.58,0,3.27-1.28,3.27-2.42,0-1.38-1.07-2.37-3.38-2.37h-2.64Z" transform="translate(-84.01 -149.66)"/><path class="cls-1" d="M422.08,237.71H429v2h-9.08V224.41h2.19Z" transform="translate(-84.01 -149.66)"/><path class="cls-1" d="M434.21,239.68H432V224.41h2.19Z" transform="translate(-84.01 -149.66)"/><path class="cls-1" d="M451.69,239.68h-3l-7.77-7.54v7.54h-2.19V224.41h2.19v7l6.42-7h2.73l-6.65,7.23Z" transform="translate(-84.01 -149.66)"/><path class="cls-1" d="M463.72,224.41h2.64l-5.66,7.21v8.06h-2.2V231.6l-5.66-7.19h2.64l4.1,5.26Z" transform="translate(-84.01 -149.66)"/><path class="cls-2" d="M95.68,155.51a5.84,5.84,0,1,1-5.83-5.85A5.84,5.84,0,0,1,95.68,155.51Z" transform="translate(-84.01 -149.66)"/><path class="cls-2" d="M240,155.51a5.84,5.84,0,1,1-5.82-5.85A5.84,5.84,0,0,1,240,155.51Z" transform="translate(-84.01 -149.66)"/><path class="cls-2" d="M95.68,173.54a5.84,5.84,0,1,1-5.83-5.84A5.83,5.83,0,0,1,95.68,173.54Z" transform="translate(-84.01 -149.66)"/><path class="cls-2" d="M113.72,173.54a5.84,5.84,0,1,1-5.83-5.84A5.83,5.83,0,0,1,113.72,173.54Z" transform="translate(-84.01 -149.66)"/><path class="cls-2" d="M221.94,173.54a5.84,5.84,0,1,1-5.82-5.84A5.82,5.82,0,0,1,221.94,173.54Z" transform="translate(-84.01 -149.66)"/><path class="cls-2" d="M240,173.54a5.84,5.84,0,1,1-5.82-5.84A5.83,5.83,0,0,1,240,173.54Z" transform="translate(-84.01 -149.66)"/><path class="cls-2" d="M95.68,191.58a5.84,5.84,0,1,1-5.83-5.84A5.84,5.84,0,0,1,95.68,191.58Z" transform="translate(-84.01 -149.66)"/><path class="cls-2" d="M113.72,191.58a5.84,5.84,0,1,1-5.83-5.84A5.84,5.84,0,0,1,113.72,191.58Z" transform="translate(-84.01 -149.66)"/><path class="cls-2" d="M131.75,191.58a5.84,5.84,0,1,1-5.82-5.84A5.82,5.82,0,0,1,131.75,191.58Z" transform="translate(-84.01 -149.66)"/><path class="cls-2" d="M203.91,191.58a5.84,5.84,0,1,1-5.83-5.84A5.84,5.84,0,0,1,203.91,191.58Z" transform="translate(-84.01 -149.66)"/><path class="cls-2" d="M221.94,191.58a5.84,5.84,0,1,1-5.82-5.84A5.82,5.82,0,0,1,221.94,191.58Z" transform="translate(-84.01 -149.66)"/><path class="cls-2" d="M240,191.58a5.84,5.84,0,1,1-5.82-5.84A5.83,5.83,0,0,1,240,191.58Z" transform="translate(-84.01 -149.66)"/><path class="cls-2" d="M95.68,209.62a5.84,5.84,0,1,1-5.83-5.84A5.84,5.84,0,0,1,95.68,209.62Z" transform="translate(-84.01 -149.66)"/><path class="cls-2" d="M113.72,209.62a5.84,5.84,0,1,1-5.83-5.84A5.84,5.84,0,0,1,113.72,209.62Z" transform="translate(-84.01 -149.66)"/><path class="cls-2" d="M131.75,209.62a5.84,5.84,0,1,1-5.82-5.84A5.83,5.83,0,0,1,131.75,209.62Z" transform="translate(-84.01 -149.66)"/><path class="cls-2" d="M149.79,209.62a5.84,5.84,0,1,1-5.83-5.84A5.83,5.83,0,0,1,149.79,209.62Z" transform="translate(-84.01 -149.66)"/><path class="cls-2" d="M185.87,209.62a5.84,5.84,0,1,1-5.83-5.84A5.84,5.84,0,0,1,185.87,209.62Z" transform="translate(-84.01 -149.66)"/><path class="cls-2" d="M203.91,209.62a5.84,5.84,0,1,1-5.83-5.84A5.84,5.84,0,0,1,203.91,209.62Z" transform="translate(-84.01 -149.66)"/><path class="cls-2" d="M221.94,209.62a5.84,5.84,0,1,1-5.82-5.84A5.83,5.83,0,0,1,221.94,209.62Z" transform="translate(-84.01 -149.66)"/><path class="cls-2" d="M240,209.62a5.84,5.84,0,1,1-5.82-5.84A5.84,5.84,0,0,1,240,209.62Z" transform="translate(-84.01 -149.66)"/><path class="cls-2" d="M95.68,227.66a5.84,5.84,0,1,1-5.83-5.84A5.84,5.84,0,0,1,95.68,227.66Z" transform="translate(-84.01 -149.66)"/><path class="cls-2" d="M113.72,227.66a5.84,5.84,0,1,1-5.83-5.84A5.84,5.84,0,0,1,113.72,227.66Z" transform="translate(-84.01 -149.66)"/><path class="cls-2" d="M131.75,227.66a5.84,5.84,0,1,1-5.82-5.84A5.83,5.83,0,0,1,131.75,227.66Z" transform="translate(-84.01 -149.66)"/><path class="cls-2" d="M149.79,227.66a5.84,5.84,0,1,1-5.83-5.84A5.83,5.83,0,0,1,149.79,227.66Z" transform="translate(-84.01 -149.66)"/><path class="cls-2" d="M167.83,227.66a5.84,5.84,0,1,1-5.83-5.84A5.84,5.84,0,0,1,167.83,227.66Z" transform="translate(-84.01 -149.66)"/><path class="cls-2" d="M185.87,227.66a5.84,5.84,0,1,1-5.83-5.84A5.84,5.84,0,0,1,185.87,227.66Z" transform="translate(-84.01 -149.66)"/><path class="cls-2" d="M203.91,227.66a5.84,5.84,0,1,1-5.83-5.84A5.84,5.84,0,0,1,203.91,227.66Z" transform="translate(-84.01 -149.66)"/><path class="cls-2" d="M221.94,227.66a5.84,5.84,0,1,1-5.82-5.84A5.83,5.83,0,0,1,221.94,227.66Z" transform="translate(-84.01 -149.66)"/><path class="cls-2" d="M240,227.66a5.84,5.84,0,1,1-5.82-5.84A5.84,5.84,0,0,1,240,227.66Z" transform="translate(-84.01 -149.66)"/><path class="cls-2" d="M95.68,245.7a5.84,5.84,0,1,1-5.83-5.85A5.84,5.84,0,0,1,95.68,245.7Z" transform="translate(-84.01 -149.66)"/><path class="cls-2" d="M113.72,245.7a5.84,5.84,0,1,1-5.83-5.85A5.84,5.84,0,0,1,113.72,245.7Z" transform="translate(-84.01 -149.66)"/><path class="cls-2" d="M131.75,245.7a5.84,5.84,0,1,1-5.82-5.85A5.83,5.83,0,0,1,131.75,245.7Z" transform="translate(-84.01 -149.66)"/><path class="cls-2" d="M149.79,245.7a5.84,5.84,0,1,1-5.83-5.85A5.83,5.83,0,0,1,149.79,245.7Z" transform="translate(-84.01 -149.66)"/><path class="cls-2" d="M167.83,245.7a5.84,5.84,0,1,1-5.83-5.85A5.84,5.84,0,0,1,167.83,245.7Z" transform="translate(-84.01 -149.66)"/><path class="cls-2" d="M185.87,245.7a5.84,5.84,0,1,1-5.83-5.85A5.84,5.84,0,0,1,185.87,245.7Z" transform="translate(-84.01 -149.66)"/><path class="cls-2" d="M203.91,245.7a5.84,5.84,0,1,1-5.83-5.85A5.84,5.84,0,0,1,203.91,245.7Z" transform="translate(-84.01 -149.66)"/><path class="cls-2" d="M221.94,245.7a5.84,5.84,0,1,1-5.82-5.85A5.83,5.83,0,0,1,221.94,245.7Z" transform="translate(-84.01 -149.66)"/><path class="cls-2" d="M240,245.7a5.84,5.84,0,1,1-5.82-5.85A5.84,5.84,0,0,1,240,245.7Z" transform="translate(-84.01 -149.66)"/><path class="cls-2" d="M95.68,263.73a5.84,5.84,0,1,1-5.83-5.84A5.85,5.85,0,0,1,95.68,263.73Z" transform="translate(-84.01 -149.66)"/><path class="cls-2" d="M113.72,263.73a5.84,5.84,0,1,1-5.83-5.84A5.85,5.85,0,0,1,113.72,263.73Z" transform="translate(-84.01 -149.66)"/><path class="cls-2" d="M131.75,263.73a5.84,5.84,0,1,1-5.82-5.84A5.83,5.83,0,0,1,131.75,263.73Z" transform="translate(-84.01 -149.66)"/><path class="cls-2" d="M149.79,263.73a5.84,5.84,0,1,1-5.83-5.84A5.83,5.83,0,0,1,149.79,263.73Z" transform="translate(-84.01 -149.66)"/><path class="cls-2" d="M167.83,263.73a5.84,5.84,0,1,1-5.83-5.84A5.84,5.84,0,0,1,167.83,263.73Z" transform="translate(-84.01 -149.66)"/><path class="cls-2" d="M185.87,263.73a5.84,5.84,0,1,1-5.83-5.84A5.84,5.84,0,0,1,185.87,263.73Z" transform="translate(-84.01 -149.66)"/><path class="cls-2" d="M203.91,263.73a5.84,5.84,0,1,1-5.83-5.84A5.85,5.85,0,0,1,203.91,263.73Z" transform="translate(-84.01 -149.66)"/><path class="cls-2" d="M221.94,263.73a5.84,5.84,0,1,1-5.82-5.84A5.83,5.83,0,0,1,221.94,263.73Z" transform="translate(-84.01 -149.66)"/><path class="cls-2" d="M240,263.73a5.84,5.84,0,1,1-5.82-5.84A5.84,5.84,0,0,1,240,263.73Z" transform="translate(-84.01 -149.66)"/></svg>